<svg width="561" height="259" viewBox="0 0 561 259" fill="none" xmlns="http://www.w3.org/2000/svg">
<g clip-path="url(#clip0_403_699)" filter="url(#filter0_dd_403_699)">
<rect x="41" y="21" width="85" height="110" rx="16" fill="url(#paint0_linear_403_699)" stroke="url(#paint1_linear_403_699)" stroke-width="2"/>
<path d="M108.911 76.1077C108.911 74.1434 107.315 72.5539 105.342 72.5539H101.774V69C101.774 60.4196 95.6355 53.2415 87.4993 51.5904V47.6769C87.4993 45.7126 85.9032 44.1231 83.9307 44.1231C81.9582 44.1231 80.3621 45.7126 80.3621 47.6769V51.5904C72.2259 53.2415 66.0877 60.4196 66.0877 69V72.5539H62.5191C60.5466 72.5539 58.9505 74.1434 58.9505 76.1077C58.9505 78.072 60.5466 79.6615 62.5191 79.6615H105.342C107.315 79.6615 108.911 78.072 108.911 76.1077ZM98.2051 93.8769H69.6563C67.6838 93.8769 66.0877 95.4664 66.0877 97.4308C66.0877 99.3951 67.6838 100.985 69.6563 100.985H98.2051C100.178 100.985 101.774 99.3951 101.774 97.4308C101.774 95.4664 100.178 93.8769 98.2051 93.8769Z" fill="white"/>
</g>
<g clip-path="url(#clip1_403_699)" filter="url(#filter1_dd_403_699)">
<path d="M211 131C210.24 131 209.532 130.631 209.102 130.016C201.094 118.563 194.169 109.784 188.615 102.743L188.614 102.742C175.793 86.4889 169 77.825 169 62.6562C169 39.6954 187.835 21 211 21C234.165 21 253 39.6954 253 62.6562C253 77.8084 246.16 86.5393 233.249 102.918L233.248 102.919C227.719 109.934 220.823 118.682 212.898 130.016C212.468 130.631 211.76 131 211 131Z" fill="url(#paint2_linear_403_699)" stroke="url(#paint3_linear_403_699)" stroke-width="2"/>
<path d="M211 86C198.318 86 188 75.6822 188 63C188 50.3178 198.318 40 211 40C223.682 40 234 50.3178 234 63C234 75.6822 223.682 86 211 86Z" fill="white"/>
</g>
<g filter="url(#filter2_dd_403_699)">
<path d="M297.411 130.826L297.407 130.825C296.558 130.473 296 129.64 296 128.717V23.2812C296 22.0199 297.02 21 298.281 21H363.906C365.168 21 366.188 22.0198 366.188 23.2812C366.188 23.2813 366.188 23.2813 366.188 23.2814V128.718C366.188 129.64 365.63 130.473 364.78 130.825L364.775 130.827C363.953 131.173 362.958 130.995 362.294 130.33C359.56 127.597 355.128 127.597 352.394 130.33C351.503 131.222 350.06 131.222 349.169 130.33C346.435 127.597 342.003 127.597 339.269 130.33C338.378 131.222 336.935 131.222 336.044 130.33C333.31 127.597 328.878 127.597 326.144 130.33C325.253 131.222 323.81 131.222 322.919 130.33C320.185 127.597 315.753 127.597 313.019 130.33C312.128 131.222 310.685 131.222 309.794 130.33C307.06 127.597 302.628 127.597 299.894 130.33C299.238 130.987 298.253 131.178 297.411 130.826Z" fill="url(#paint4_linear_403_699)" stroke="url(#paint5_linear_403_699)" stroke-width="2"/>
<path d="M331.094 55.3029C329.287 55.3029 327.813 53.832 327.813 52.0216C327.813 50.2113 329.287 48.7404 331.094 48.7404C332.901 48.7404 334.375 50.2113 334.375 52.0216C334.375 53.8353 335.843 55.3029 337.657 55.3029C339.47 55.3029 340.938 53.8353 340.938 52.0216C340.938 47.7494 338.187 44.1414 334.375 42.7823V38.8966C334.375 37.083 332.908 35.6154 331.094 35.6154C329.28 35.6154 327.813 37.083 327.813 38.8966V42.7823C324.001 44.1414 321.25 47.7494 321.25 52.0216C321.25 57.4497 325.666 61.8654 331.094 61.8654C332.901 61.8654 334.375 63.3363 334.375 65.1466C334.375 66.957 332.901 68.4279 331.094 68.4279C329.287 68.4279 327.813 66.957 327.813 65.1466C327.813 63.333 326.345 61.8654 324.532 61.8654C322.718 61.8654 321.25 63.333 321.25 65.1466C321.25 69.4188 324.001 73.0269 327.813 74.386V78.2716C327.813 80.0853 329.28 81.5529 331.094 81.5529C332.908 81.5529 334.375 80.0853 334.375 78.2716V74.386C338.187 73.0271 340.938 69.4188 340.938 65.1466C340.938 59.7186 336.522 55.3029 331.094 55.3029ZM331.094 88.1154H311.407C309.593 88.1154 308.125 89.583 308.125 91.3966C308.125 93.2103 309.593 94.6779 311.407 94.6779H331.094C332.908 94.6779 334.375 93.2103 334.375 91.3966C334.375 89.583 332.908 88.1154 331.094 88.1154ZM331.094 101.24H311.407C309.593 101.24 308.125 102.708 308.125 104.522C308.125 106.335 309.593 107.803 311.407 107.803H331.094C332.908 107.803 334.375 106.335 334.375 104.522C334.375 102.708 332.908 101.24 331.094 101.24ZM344.219 94.6779H350.782C352.595 94.6779 354.063 93.2103 354.063 91.3966C354.063 89.583 352.595 88.1154 350.782 88.1154H344.219C342.405 88.1154 340.938 89.583 340.938 91.3966C340.938 93.2103 342.405 94.6779 344.219 94.6779ZM350.782 101.24H344.219C342.405 101.24 340.938 102.708 340.938 104.522C340.938 106.335 342.405 107.803 344.219 107.803H350.782C352.595 107.803 354.063 106.335 354.063 104.522C354.063 102.708 352.595 101.24 350.782 101.24Z" fill="white"/>
</g>
<g filter="url(#filter3_dd_403_699)">
<path d="M409.188 76C409.188 45.7742 433.962 21 464.188 21C494.413 21 519.188 45.7742 519.188 76C519.188 90.9858 512.926 104.582 503.15 114.503L464.188 127.663L425.226 114.503C415.45 104.582 409.188 90.9857 409.188 76ZM440.219 76C440.219 89.2179 450.97 99.9688 464.188 99.9688C477.406 99.9688 488.156 89.2179 488.156 76C488.156 62.7821 477.406 52.0312 464.188 52.0312C450.97 52.0312 440.219 62.7821 440.219 76Z" fill="url(#paint6_linear_403_699)" stroke="url(#paint7_linear_403_699)" stroke-width="2"/>
<path d="M409.188 76C409.188 45.7742 433.962 21 464.188 21C494.413 21 519.188 45.7742 519.188 76C519.188 90.9858 512.926 104.582 503.15 114.503L464.188 127.663L425.226 114.503C415.45 104.582 409.188 90.9858 409.188 76ZM440.219 76C440.219 89.2179 450.97 99.9688 464.188 99.9688C477.406 99.9688 488.156 89.2179 488.156 76C488.156 62.7821 477.406 52.0313 464.188 52.0313C450.97 52.0313 440.219 62.7821 440.219 76Z" fill="url(#paint8_linear_403_699)" stroke="url(#paint9_linear_403_699)" stroke-width="2"/>
<path d="M464.188 115.375C454.344 115.375 454.344 108.812 444.5 108.812C434.656 108.812 434.656 115.441 424.681 115.375C434.788 125.481 448.766 132 464.188 132C479.61 132 493.588 125.481 503.694 115.375C493.719 115.441 493.785 108.812 483.875 108.812C474.031 108.812 474.031 115.375 464.188 115.375ZM433.695 86.8051C432.413 85.5235 430.337 85.5235 429.055 86.8051C427.774 88.0868 427.774 90.1634 429.055 91.445L435.618 98.0075C436.9 99.2892 438.976 99.2892 440.258 98.0075C441.539 96.7259 441.539 94.6493 440.258 93.3676L433.695 86.8051ZM464.188 46.4687H477.313C479.126 46.4687 480.594 45.0011 480.594 43.1875C480.594 41.3738 479.126 39.9062 477.313 39.9062H464.188C462.374 39.9062 460.906 41.3738 460.906 43.1875C460.906 45.0011 462.374 46.4687 464.188 46.4687ZM492.758 98.0073L499.32 91.4448C500.602 90.1631 500.602 88.0866 499.32 86.8049C498.038 85.5232 495.962 85.5232 494.68 86.8049L488.118 93.3674C486.836 94.6491 486.836 96.7256 488.118 98.0073C489.4 99.2892 491.476 99.2892 492.758 98.0073ZM494.68 65.1948C495.962 66.4765 498.039 66.4765 499.32 65.1948C500.602 63.9132 500.602 61.8366 499.32 60.5549L492.758 53.9924C491.476 52.7107 489.4 52.7107 488.118 53.9924C486.836 55.2741 486.836 57.3507 488.118 58.6323L494.68 65.1948ZM433.695 65.1948L440.258 58.6323C441.539 57.3507 441.539 55.2741 440.258 53.9924C438.976 52.7107 436.899 52.7107 435.618 53.9924L429.055 60.5549C427.774 61.8366 427.774 63.9132 429.055 65.1948C430.337 66.4767 432.413 66.4767 433.695 65.1948ZM451.063 46.3125C452.875 46.3125 454.344 44.8434 454.344 43.0313C454.344 41.2192 452.875 39.75 451.063 39.75C449.251 39.75 447.782 41.2192 447.782 43.0313C447.782 44.8434 449.251 46.3125 451.063 46.3125ZM428.094 75.8438C428.094 74.0317 426.625 72.5625 424.813 72.5625C423.001 72.5625 421.532 74.0317 421.532 75.8438C421.532 77.6559 423.001 79.125 424.813 79.125C426.625 79.125 428.094 77.6559 428.094 75.8438ZM503.563 72.5625C501.751 72.5625 500.282 74.0317 500.282 75.8438C500.282 77.6559 501.751 79.125 503.563 79.125C505.375 79.125 506.844 77.6559 506.844 75.8438C506.844 74.0317 505.375 72.5625 503.563 72.5625Z" fill="white"/>
</g>
<path d="M214.129 193.264C217.583 193.264 219.585 191.174 219.585 188.776C219.585 186.774 218.529 185.586 216.747 184.882L214.965 184.156C213.689 183.65 212.787 183.364 212.787 182.528C212.787 181.78 213.469 181.362 214.525 181.362C215.427 181.362 216.417 181.736 217.385 182.418L219.167 180.196C217.935 179.052 216.241 178.414 214.525 178.414C211.489 178.414 209.333 180.35 209.333 182.748C209.333 184.816 210.719 186.07 212.237 186.664L214.063 187.456C215.317 187.962 216.087 188.226 216.087 189.062C216.087 189.832 215.493 190.316 214.195 190.316C212.985 190.316 211.599 189.832 210.587 188.952L208.783 191.174C210.279 192.604 212.193 193.264 214.129 193.264ZM226.617 193.264C227.915 193.264 229.411 192.846 230.555 192.032L229.455 189.986C228.685 190.426 227.893 190.668 227.101 190.668C225.715 190.668 224.681 190.03 224.373 188.556H230.819C230.885 188.248 230.951 187.676 230.951 187.06C230.951 184.09 229.411 181.802 226.243 181.802C223.625 181.802 221.073 183.98 221.073 187.522C221.073 191.174 223.493 193.264 226.617 193.264ZM224.329 186.268C224.549 184.992 225.363 184.376 226.331 184.376C227.563 184.376 228.047 185.19 228.047 186.268H224.329ZM236.221 193.264C236.969 193.264 237.541 193.132 237.915 192.978L237.519 190.47C237.343 190.514 237.255 190.514 237.123 190.514C236.859 190.514 236.507 190.294 236.507 189.59V177.622H233.119V189.458C233.119 191.746 233.889 193.264 236.221 193.264ZM244.427 193.264C245.725 193.264 247.221 192.846 248.365 192.032L247.265 189.986C246.495 190.426 245.703 190.668 244.911 190.668C243.525 190.668 242.491 190.03 242.183 188.556H248.629C248.695 188.248 248.761 187.676 248.761 187.06C248.761 184.09 247.221 181.802 244.053 181.802C241.435 181.802 238.883 183.98 238.883 187.522C238.883 191.174 241.303 193.264 244.427 193.264ZM242.139 186.268C242.359 184.992 243.173 184.376 244.141 184.376C245.373 184.376 245.857 185.19 245.857 186.268H242.139ZM255.747 193.264C256.913 193.264 258.299 192.934 259.355 191.966L258.035 189.832C257.485 190.25 256.869 190.514 256.143 190.514C254.801 190.514 253.789 189.348 253.789 187.522C253.789 185.718 254.735 184.53 256.253 184.53C256.737 184.53 257.155 184.684 257.661 185.058L259.245 182.968C258.431 182.264 257.397 181.802 256.055 181.802C253.019 181.802 250.313 183.892 250.313 187.522C250.313 191.152 252.667 193.264 255.747 193.264ZM265.317 193.264C266.395 193.264 267.231 193.044 267.803 192.824L267.275 190.448C266.989 190.558 266.615 190.602 266.263 190.602C265.449 190.602 264.877 190.14 264.877 188.908V184.728H267.451V182.066H264.877V178.722H262.061L261.665 182.066L259.993 182.176V184.728H261.467V188.952C261.467 191.526 262.589 193.264 265.317 193.264ZM277.062 193.264C277.81 193.264 278.382 193.132 278.756 192.978L278.36 190.47C278.184 190.514 278.096 190.514 277.964 190.514C277.7 190.514 277.348 190.294 277.348 189.59V177.622H273.96V189.458C273.96 191.746 274.73 193.264 277.062 193.264ZM285.071 193.264C287.865 193.264 290.439 191.152 290.439 187.522C290.439 183.892 287.865 181.802 285.071 181.802C282.299 181.802 279.725 183.892 279.725 187.522C279.725 191.152 282.299 193.264 285.071 193.264ZM285.071 190.514C283.795 190.514 283.201 189.348 283.201 187.522C283.201 185.718 283.795 184.53 285.071 184.53C286.347 184.53 286.941 185.718 286.941 187.522C286.941 189.348 286.347 190.514 285.071 190.514ZM297.405 193.264C298.571 193.264 299.957 192.934 301.013 191.966L299.693 189.832C299.143 190.25 298.527 190.514 297.801 190.514C296.459 190.514 295.447 189.348 295.447 187.522C295.447 185.718 296.393 184.53 297.911 184.53C298.395 184.53 298.813 184.684 299.319 185.058L300.903 182.968C300.089 182.264 299.055 181.802 297.713 181.802C294.677 181.802 291.971 183.892 291.971 187.522C291.971 191.152 294.325 193.264 297.405 193.264ZM305.457 193.264C306.689 193.264 307.679 192.714 308.581 191.9H308.669L308.911 193H311.683V186.796C311.683 183.364 310.099 181.802 307.283 181.802C305.567 181.802 304.005 182.352 302.575 183.232L303.763 185.432C304.863 184.816 305.743 184.508 306.623 184.508C307.745 184.508 308.207 185.036 308.295 185.938C303.983 186.378 302.201 187.632 302.201 189.942C302.201 191.768 303.455 193.264 305.457 193.264ZM306.623 190.624C305.875 190.624 305.457 190.316 305.457 189.678C305.457 188.908 306.117 188.314 308.295 188.028V189.766C307.767 190.294 307.305 190.624 306.623 190.624ZM318.233 193.264C319.311 193.264 320.147 193.044 320.719 192.824L320.191 190.448C319.905 190.558 319.531 190.602 319.179 190.602C318.365 190.602 317.793 190.14 317.793 188.908V184.728H320.367V182.066H317.793V178.722H314.977L314.581 182.066L312.909 182.176V184.728H314.383V188.952C314.383 191.526 315.505 193.264 318.233 193.264ZM322.472 193H325.86V182.066H322.472V193ZM324.166 180.526C325.288 180.526 326.08 179.844 326.08 178.766C326.08 177.71 325.288 177.028 324.166 177.028C323.044 177.028 322.252 177.71 322.252 178.766C322.252 179.844 323.044 180.526 324.166 180.526ZM333.368 193.264C336.162 193.264 338.736 191.152 338.736 187.522C338.736 183.892 336.162 181.802 333.368 181.802C330.596 181.802 328.022 183.892 328.022 187.522C328.022 191.152 330.596 193.264 333.368 193.264ZM333.368 190.514C332.092 190.514 331.498 189.348 331.498 187.522C331.498 185.718 332.092 184.53 333.368 184.53C334.644 184.53 335.238 185.718 335.238 187.522C335.238 189.348 334.644 190.514 333.368 190.514ZM340.884 193H344.272V185.674C344.954 185.058 345.416 184.684 346.186 184.684C347.066 184.684 347.462 185.146 347.462 186.664V193H350.872V186.224C350.872 183.496 349.86 181.802 347.484 181.802C345.988 181.802 344.888 182.55 343.986 183.43H343.898L343.656 182.066H340.884V193Z" fill="#434343"/>
<path d="M153.874 216.302C152.462 216.302 151.346 216.773 150.526 217.717C149.711 218.654 149.304 219.94 149.304 221.575C149.304 223.257 149.696 224.558 150.482 225.478C151.273 226.392 152.398 226.849 153.857 226.849C154.753 226.849 155.776 226.688 156.924 226.365V227.675C156.033 228.009 154.935 228.176 153.628 228.176C151.735 228.176 150.274 227.602 149.242 226.453C148.217 225.305 147.704 223.673 147.704 221.558C147.704 220.233 147.95 219.073 148.443 218.077C148.941 217.081 149.655 216.314 150.587 215.774C151.525 215.235 152.626 214.966 153.892 214.966C155.239 214.966 156.417 215.212 157.425 215.704L156.792 216.987C155.819 216.53 154.847 216.302 153.874 216.302ZM166.1 228V221.769C166.1 220.983 165.921 220.397 165.564 220.011C165.206 219.624 164.647 219.431 163.885 219.431C162.871 219.431 162.13 219.706 161.661 220.257C161.198 220.808 160.967 221.71 160.967 222.964V228H159.508V214.324H160.967V218.464C160.967 218.962 160.943 219.375 160.897 219.703H160.984C161.272 219.24 161.679 218.877 162.206 218.613C162.739 218.344 163.346 218.209 164.026 218.209C165.203 218.209 166.085 218.49 166.671 219.053C167.263 219.609 167.559 220.497 167.559 221.716V228H166.1ZM178.879 223.175C178.879 224.745 178.484 225.973 177.693 226.857C176.901 227.736 175.809 228.176 174.414 228.176C173.553 228.176 172.788 227.974 172.12 227.569C171.452 227.165 170.937 226.585 170.573 225.829C170.21 225.073 170.028 224.189 170.028 223.175C170.028 221.605 170.421 220.383 171.206 219.51C171.991 218.631 173.081 218.191 174.476 218.191C175.823 218.191 176.893 218.64 177.684 219.536C178.481 220.433 178.879 221.646 178.879 223.175ZM171.54 223.175C171.54 224.405 171.786 225.343 172.278 225.987C172.771 226.632 173.494 226.954 174.449 226.954C175.404 226.954 176.128 226.635 176.62 225.996C177.118 225.352 177.367 224.411 177.367 223.175C177.367 221.95 177.118 221.022 176.62 220.389C176.128 219.75 175.399 219.431 174.432 219.431C173.477 219.431 172.756 219.744 172.27 220.371C171.783 220.998 171.54 221.933 171.54 223.175ZM189.76 223.175C189.76 224.745 189.364 225.973 188.573 226.857C187.782 227.736 186.69 228.176 185.295 228.176C184.434 228.176 183.669 227.974 183.001 227.569C182.333 227.165 181.818 226.585 181.454 225.829C181.091 225.073 180.909 224.189 180.909 223.175C180.909 221.605 181.302 220.383 182.087 219.51C182.872 218.631 183.962 218.191 185.357 218.191C186.704 218.191 187.774 218.64 188.565 219.536C189.361 220.433 189.76 221.646 189.76 223.175ZM182.421 223.175C182.421 224.405 182.667 225.343 183.159 225.987C183.651 226.632 184.375 226.954 185.33 226.954C186.285 226.954 187.009 226.635 187.501 225.996C187.999 225.352 188.248 224.411 188.248 223.175C188.248 221.95 187.999 221.022 187.501 220.389C187.009 219.75 186.279 219.431 185.313 219.431C184.358 219.431 183.637 219.744 183.151 220.371C182.664 220.998 182.421 221.933 182.421 223.175ZM198.54 225.372C198.54 226.269 198.206 226.96 197.538 227.446C196.87 227.933 195.933 228.176 194.726 228.176C193.448 228.176 192.452 227.974 191.737 227.569V226.216C192.2 226.45 192.695 226.635 193.223 226.77C193.756 226.904 194.269 226.972 194.761 226.972C195.523 226.972 196.109 226.852 196.519 226.611C196.929 226.365 197.134 225.993 197.134 225.495C197.134 225.12 196.97 224.801 196.642 224.537C196.319 224.268 195.687 223.951 194.743 223.588C193.847 223.254 193.208 222.964 192.827 222.718C192.452 222.466 192.171 222.182 191.984 221.865C191.802 221.549 191.711 221.171 191.711 220.731C191.711 219.946 192.03 219.328 192.669 218.877C193.308 218.42 194.184 218.191 195.297 218.191C196.334 218.191 197.348 218.402 198.338 218.824L197.819 220.011C196.853 219.612 195.977 219.413 195.192 219.413C194.5 219.413 193.979 219.522 193.627 219.738C193.276 219.955 193.1 220.254 193.1 220.635C193.1 220.893 193.164 221.112 193.293 221.294C193.428 221.476 193.642 221.648 193.935 221.813C194.228 221.977 194.79 222.214 195.622 222.524C196.765 222.94 197.535 223.359 197.934 223.781C198.338 224.203 198.54 224.733 198.54 225.372ZM204.991 228.176C203.568 228.176 202.443 227.742 201.616 226.875C200.796 226.008 200.386 224.804 200.386 223.263C200.386 221.71 200.767 220.477 201.528 219.563C202.296 218.648 203.324 218.191 204.613 218.191C205.82 218.191 206.776 218.59 207.479 219.387C208.182 220.178 208.533 221.224 208.533 222.524V223.447H201.898C201.927 224.578 202.211 225.437 202.75 226.022C203.295 226.608 204.06 226.901 205.044 226.901C206.081 226.901 207.107 226.685 208.12 226.251V227.552C207.605 227.774 207.115 227.933 206.652 228.026C206.195 228.126 205.642 228.176 204.991 228.176ZM204.596 219.413C203.822 219.413 203.204 219.665 202.741 220.169C202.284 220.673 202.015 221.37 201.933 222.261H206.969C206.969 221.341 206.764 220.638 206.354 220.151C205.943 219.659 205.358 219.413 204.596 219.413ZM218.817 226.972C219.074 226.972 219.323 226.954 219.564 226.919C219.804 226.878 219.994 226.837 220.135 226.796V227.912C219.977 227.988 219.742 228.05 219.432 228.097C219.127 228.149 218.852 228.176 218.606 228.176C216.742 228.176 215.811 227.194 215.811 225.231V219.501H214.431V218.798L215.811 218.191L216.426 216.135H217.27V218.367H220.065V219.501H217.27V225.17C217.27 225.75 217.407 226.195 217.683 226.506C217.958 226.816 218.336 226.972 218.817 226.972ZM228.66 228V221.769C228.66 220.983 228.482 220.397 228.124 220.011C227.767 219.624 227.207 219.431 226.445 219.431C225.432 219.431 224.691 219.706 224.222 220.257C223.759 220.808 223.527 221.71 223.527 222.964V228H222.068V214.324H223.527V218.464C223.527 218.962 223.504 219.375 223.457 219.703H223.545C223.832 219.24 224.239 218.877 224.767 218.613C225.3 218.344 225.906 218.209 226.586 218.209C227.764 218.209 228.646 218.49 229.232 219.053C229.823 219.609 230.119 220.497 230.119 221.716V228H228.66ZM237.194 228.176C235.771 228.176 234.646 227.742 233.819 226.875C232.999 226.008 232.589 224.804 232.589 223.263C232.589 221.71 232.97 220.477 233.732 219.563C234.499 218.648 235.527 218.191 236.817 218.191C238.024 218.191 238.979 218.59 239.682 219.387C240.385 220.178 240.736 221.224 240.736 222.524V223.447H234.101C234.13 224.578 234.414 225.437 234.953 226.022C235.498 226.608 236.263 226.901 237.247 226.901C238.284 226.901 239.31 226.685 240.323 226.251V227.552C239.808 227.774 239.318 227.933 238.856 228.026C238.399 228.126 237.845 228.176 237.194 228.176ZM236.799 219.413C236.026 219.413 235.407 219.665 234.944 220.169C234.487 220.673 234.218 221.37 234.136 222.261H239.172C239.172 221.341 238.967 220.638 238.557 220.151C238.147 219.659 237.561 219.413 236.799 219.413ZM249.367 228H247.908V214.324H249.367V228ZM260.776 223.175C260.776 224.745 260.38 225.973 259.589 226.857C258.798 227.736 257.705 228.176 256.311 228.176C255.449 228.176 254.685 227.974 254.017 227.569C253.349 227.165 252.833 226.585 252.47 225.829C252.107 225.073 251.925 224.189 251.925 223.175C251.925 221.605 252.318 220.383 253.103 219.51C253.888 218.631 254.978 218.191 256.372 218.191C257.72 218.191 258.789 218.64 259.58 219.536C260.377 220.433 260.776 221.646 260.776 223.175ZM253.437 223.175C253.437 224.405 253.683 225.343 254.175 225.987C254.667 226.632 255.391 226.954 256.346 226.954C257.301 226.954 258.025 226.635 258.517 225.996C259.015 225.352 259.264 224.411 259.264 223.175C259.264 221.95 259.015 221.022 258.517 220.389C258.025 219.75 257.295 219.431 256.328 219.431C255.373 219.431 254.652 219.744 254.166 220.371C253.68 220.998 253.437 221.933 253.437 223.175ZM267.192 228.176C265.797 228.176 264.716 227.748 263.948 226.893C263.187 226.031 262.806 224.815 262.806 223.245C262.806 221.634 263.193 220.389 263.966 219.51C264.745 218.631 265.853 218.191 267.288 218.191C267.751 218.191 268.214 218.241 268.677 218.341C269.14 218.44 269.503 218.558 269.767 218.692L269.318 219.932C268.996 219.803 268.645 219.697 268.264 219.615C267.883 219.527 267.546 219.483 267.253 219.483C265.296 219.483 264.318 220.731 264.318 223.228C264.318 224.411 264.555 225.319 265.029 225.952C265.51 226.585 266.219 226.901 267.156 226.901C267.959 226.901 268.782 226.729 269.626 226.383V227.675C268.982 228.009 268.17 228.176 267.192 228.176ZM277.844 228L277.554 226.629H277.484C277.003 227.232 276.523 227.643 276.042 227.859C275.568 228.07 274.973 228.176 274.258 228.176C273.303 228.176 272.553 227.93 272.008 227.438C271.469 226.945 271.199 226.245 271.199 225.337C271.199 223.392 272.755 222.372 275.866 222.278L277.501 222.226V221.628C277.501 220.872 277.337 220.315 277.009 219.958C276.687 219.595 276.168 219.413 275.453 219.413C274.651 219.413 273.742 219.659 272.729 220.151L272.28 219.035C272.755 218.777 273.274 218.575 273.836 218.429C274.404 218.282 274.973 218.209 275.541 218.209C276.69 218.209 277.539 218.464 278.09 218.974C278.647 219.483 278.925 220.301 278.925 221.426V228H277.844ZM274.548 226.972C275.456 226.972 276.168 226.723 276.684 226.225C277.205 225.727 277.466 225.029 277.466 224.133V223.263L276.007 223.324C274.847 223.365 274.009 223.547 273.493 223.869C272.984 224.186 272.729 224.681 272.729 225.355C272.729 225.882 272.887 226.283 273.203 226.559C273.526 226.834 273.974 226.972 274.548 226.972ZM285.051 226.972C285.309 226.972 285.558 226.954 285.798 226.919C286.038 226.878 286.229 226.837 286.369 226.796V227.912C286.211 227.988 285.977 228.05 285.666 228.097C285.361 228.149 285.086 228.176 284.84 228.176C282.977 228.176 282.045 227.194 282.045 225.231V219.501H280.665V218.798L282.045 218.191L282.66 216.135H283.504V218.367H286.299V219.501H283.504V225.17C283.504 225.75 283.642 226.195 283.917 226.506C284.193 226.816 284.57 226.972 285.051 226.972ZM289.762 228H288.303V218.367H289.762V228ZM288.18 215.757C288.18 215.423 288.262 215.18 288.426 215.027C288.59 214.869 288.795 214.79 289.041 214.79C289.276 214.79 289.478 214.869 289.648 215.027C289.818 215.186 289.902 215.429 289.902 215.757C289.902 216.085 289.818 216.331 289.648 216.495C289.478 216.653 289.276 216.732 289.041 216.732C288.795 216.732 288.59 216.653 288.426 216.495C288.262 216.331 288.18 216.085 288.18 215.757ZM301.17 223.175C301.17 224.745 300.775 225.973 299.984 226.857C299.193 227.736 298.1 228.176 296.705 228.176C295.844 228.176 295.079 227.974 294.411 227.569C293.743 227.165 293.228 226.585 292.864 225.829C292.501 225.073 292.319 224.189 292.319 223.175C292.319 221.605 292.712 220.383 293.497 219.51C294.282 218.631 295.372 218.191 296.767 218.191C298.114 218.191 299.184 218.64 299.975 219.536C300.772 220.433 301.17 221.646 301.17 223.175ZM293.831 223.175C293.831 224.405 294.077 225.343 294.569 225.987C295.062 226.632 295.785 226.954 296.74 226.954C297.695 226.954 298.419 226.635 298.911 225.996C299.409 225.352 299.658 224.411 299.658 223.175C299.658 221.95 299.409 221.022 298.911 220.389C298.419 219.75 297.69 219.431 296.723 219.431C295.768 219.431 295.047 219.744 294.561 220.371C294.074 220.998 293.831 221.933 293.831 223.175ZM310.328 228V221.769C310.328 220.983 310.15 220.397 309.792 220.011C309.435 219.624 308.875 219.431 308.113 219.431C307.106 219.431 306.367 219.703 305.899 220.248C305.43 220.793 305.195 221.692 305.195 222.946V228H303.736V218.367H304.923L305.16 219.686H305.231C305.529 219.211 305.948 218.845 306.487 218.587C307.026 218.323 307.627 218.191 308.289 218.191C309.449 218.191 310.322 218.473 310.908 219.035C311.494 219.592 311.787 220.485 311.787 221.716V228H310.328ZM327.335 228L325.568 222.349C325.457 222.003 325.249 221.218 324.944 219.993H324.874C324.64 221.019 324.435 221.81 324.259 222.366L322.44 228H320.752L318.124 218.367H319.653C320.275 220.787 320.746 222.63 321.068 223.896C321.397 225.161 321.584 226.014 321.631 226.453H321.701C321.766 226.119 321.868 225.689 322.009 225.161C322.155 224.628 322.281 224.206 322.387 223.896L324.153 218.367H325.735L327.458 223.896C327.786 224.903 328.009 225.75 328.126 226.436H328.196C328.22 226.225 328.281 225.899 328.381 225.46C328.486 225.021 329.099 222.656 330.218 218.367H331.73L329.067 228H327.335ZM340.07 228V221.769C340.07 220.983 339.892 220.397 339.534 220.011C339.177 219.624 338.617 219.431 337.856 219.431C336.842 219.431 336.101 219.706 335.632 220.257C335.169 220.808 334.938 221.71 334.938 222.964V228H333.479V214.324H334.938V218.464C334.938 218.962 334.914 219.375 334.867 219.703H334.955C335.242 219.24 335.65 218.877 336.177 218.613C336.71 218.344 337.317 218.209 337.996 218.209C339.174 218.209 340.056 218.49 340.642 219.053C341.234 219.609 341.529 220.497 341.529 221.716V228H340.07ZM348.605 228.176C347.181 228.176 346.056 227.742 345.23 226.875C344.409 226.008 343.999 224.804 343.999 223.263C343.999 221.71 344.38 220.477 345.142 219.563C345.909 218.648 346.938 218.191 348.227 218.191C349.434 218.191 350.389 218.59 351.092 219.387C351.795 220.178 352.147 221.224 352.147 222.524V223.447H345.511C345.54 224.578 345.824 225.437 346.363 226.022C346.908 226.608 347.673 226.901 348.657 226.901C349.694 226.901 350.72 226.685 351.734 226.251V227.552C351.218 227.774 350.729 227.933 350.266 228.026C349.809 228.126 349.255 228.176 348.605 228.176ZM348.209 219.413C347.436 219.413 346.818 219.665 346.355 220.169C345.898 220.673 345.628 221.37 345.546 222.261H350.582C350.582 221.341 350.377 220.638 349.967 220.151C349.557 219.659 348.971 219.413 348.209 219.413ZM359.037 218.191C359.465 218.191 359.849 218.227 360.189 218.297L359.986 219.65C359.588 219.563 359.236 219.519 358.932 219.519C358.152 219.519 357.484 219.835 356.928 220.468C356.377 221.101 356.102 221.889 356.102 222.832V228H354.643V218.367H355.847L356.014 220.151H356.084C356.442 219.524 356.872 219.041 357.376 218.701C357.88 218.361 358.434 218.191 359.037 218.191ZM366.06 228.176C364.636 228.176 363.511 227.742 362.685 226.875C361.864 226.008 361.454 224.804 361.454 223.263C361.454 221.71 361.835 220.477 362.597 219.563C363.364 218.648 364.393 218.191 365.682 218.191C366.889 218.191 367.844 218.59 368.547 219.387C369.25 220.178 369.602 221.224 369.602 222.524V223.447H362.966C362.995 224.578 363.279 225.437 363.818 226.022C364.363 226.608 365.128 226.901 366.112 226.901C367.15 226.901 368.175 226.685 369.189 226.251V227.552C368.673 227.774 368.184 227.933 367.721 228.026C367.264 228.126 366.71 228.176 366.06 228.176ZM365.664 219.413C364.891 219.413 364.273 219.665 363.81 220.169C363.353 220.673 363.083 221.37 363.001 222.261H368.037C368.037 221.341 367.832 220.638 367.422 220.151C367.012 219.659 366.426 219.413 365.664 219.413ZM375.244 218.367H376.809L378.918 223.86C379.381 225.114 379.668 226.02 379.779 226.576H379.85C379.926 226.277 380.084 225.768 380.324 225.047C380.57 224.32 381.367 222.094 382.715 218.367H384.279L380.14 229.336C379.73 230.42 379.249 231.188 378.698 231.639C378.153 232.096 377.483 232.324 376.686 232.324C376.24 232.324 375.801 232.274 375.367 232.175V231.006C375.69 231.076 376.05 231.111 376.448 231.111C377.45 231.111 378.165 230.549 378.593 229.424L379.129 228.053L375.244 218.367ZM394.158 223.175C394.158 224.745 393.763 225.973 392.972 226.857C392.181 227.736 391.088 228.176 389.693 228.176C388.832 228.176 388.068 227.974 387.4 227.569C386.732 227.165 386.216 226.585 385.853 225.829C385.489 225.073 385.308 224.189 385.308 223.175C385.308 221.605 385.7 220.383 386.485 219.51C387.271 218.631 388.36 218.191 389.755 218.191C391.103 218.191 392.172 218.64 392.963 219.536C393.76 220.433 394.158 221.646 394.158 223.175ZM386.819 223.175C386.819 224.405 387.066 225.343 387.558 225.987C388.05 226.632 388.774 226.954 389.729 226.954C390.684 226.954 391.407 226.635 391.9 225.996C392.398 225.352 392.647 224.411 392.647 223.175C392.647 221.95 392.398 221.022 391.9 220.389C391.407 219.75 390.678 219.431 389.711 219.431C388.756 219.431 388.035 219.744 387.549 220.371C387.063 220.998 386.819 221.933 386.819 223.175ZM398.096 218.367V224.616C398.096 225.401 398.275 225.987 398.632 226.374C398.989 226.761 399.549 226.954 400.311 226.954C401.318 226.954 402.054 226.679 402.517 226.128C402.985 225.577 403.22 224.678 403.22 223.43V218.367H404.679V228H403.475L403.264 226.708H403.185C402.886 227.183 402.47 227.546 401.937 227.798C401.409 228.05 400.806 228.176 400.126 228.176C398.954 228.176 398.075 227.897 397.489 227.341C396.909 226.784 396.619 225.894 396.619 224.669V218.367H398.096ZM412.176 218.191C412.604 218.191 412.987 218.227 413.327 218.297L413.125 219.65C412.727 219.563 412.375 219.519 412.07 219.519C411.291 219.519 410.623 219.835 410.067 220.468C409.516 221.101 409.24 221.889 409.24 222.832V228H407.781V218.367H408.985L409.152 220.151H409.223C409.58 219.524 410.011 219.041 410.515 218.701C411.019 218.361 411.572 218.191 412.176 218.191ZM193.776 244.501H191.324V253H189.865V244.501H188.143V243.842L189.865 243.314V242.778C189.865 240.411 190.9 239.228 192.968 239.228C193.478 239.228 194.075 239.33 194.761 239.535L194.383 240.704C193.82 240.522 193.34 240.432 192.942 240.432C192.391 240.432 191.984 240.616 191.72 240.985C191.456 241.349 191.324 241.935 191.324 242.743V243.367H193.776V244.501ZM203.849 248.175C203.849 249.745 203.453 250.973 202.662 251.857C201.871 252.736 200.778 253.176 199.384 253.176C198.523 253.176 197.758 252.974 197.09 252.569C196.422 252.165 195.906 251.585 195.543 250.829C195.18 250.073 194.998 249.189 194.998 248.175C194.998 246.605 195.391 245.383 196.176 244.51C196.961 243.631 198.051 243.191 199.445 243.191C200.793 243.191 201.862 243.64 202.653 244.536C203.45 245.433 203.849 246.646 203.849 248.175ZM196.51 248.175C196.51 249.405 196.756 250.343 197.248 250.987C197.74 251.632 198.464 251.954 199.419 251.954C200.374 251.954 201.098 251.635 201.59 250.996C202.088 250.352 202.337 249.411 202.337 248.175C202.337 246.95 202.088 246.022 201.59 245.389C201.098 244.75 200.368 244.431 199.401 244.431C198.446 244.431 197.726 244.744 197.239 245.371C196.753 245.998 196.51 246.933 196.51 248.175ZM214.73 248.175C214.73 249.745 214.334 250.973 213.543 251.857C212.752 252.736 211.659 253.176 210.265 253.176C209.403 253.176 208.639 252.974 207.971 252.569C207.303 252.165 206.787 251.585 206.424 250.829C206.061 250.073 205.879 249.189 205.879 248.175C205.879 246.605 206.272 245.383 207.057 244.51C207.842 243.631 208.932 243.191 210.326 243.191C211.674 243.191 212.743 243.64 213.534 244.536C214.331 245.433 214.73 246.646 214.73 248.175ZM207.391 248.175C207.391 249.405 207.637 250.343 208.129 250.987C208.621 251.632 209.345 251.954 210.3 251.954C211.255 251.954 211.979 251.635 212.471 250.996C212.969 250.352 213.218 249.411 213.218 248.175C213.218 246.95 212.969 246.022 212.471 245.389C211.979 244.75 211.249 244.431 210.282 244.431C209.327 244.431 208.607 244.744 208.12 245.371C207.634 245.998 207.391 246.933 207.391 248.175ZM223.853 251.708H223.774C223.1 252.687 222.092 253.176 220.75 253.176C219.49 253.176 218.509 252.745 217.806 251.884C217.109 251.022 216.76 249.798 216.76 248.21C216.76 246.622 217.111 245.389 217.815 244.51C218.518 243.631 219.496 243.191 220.75 243.191C222.057 243.191 223.059 243.666 223.756 244.615H223.87L223.809 243.921L223.774 243.244V239.324H225.233V253H224.046L223.853 251.708ZM220.935 251.954C221.931 251.954 222.651 251.685 223.097 251.146C223.548 250.601 223.774 249.725 223.774 248.518V248.21C223.774 246.845 223.545 245.872 223.088 245.292C222.637 244.706 221.913 244.413 220.917 244.413C220.062 244.413 219.405 244.747 218.948 245.415C218.497 246.077 218.272 247.015 218.272 248.228C218.272 249.458 218.497 250.387 218.948 251.014C219.4 251.641 220.062 251.954 220.935 251.954ZM240.877 253L239.11 247.349C238.999 247.003 238.791 246.218 238.486 244.993H238.416C238.182 246.019 237.977 246.81 237.801 247.366L235.982 253H234.294L231.666 243.367H233.195C233.817 245.787 234.288 247.63 234.61 248.896C234.939 250.161 235.126 251.014 235.173 251.453H235.243C235.308 251.119 235.41 250.689 235.551 250.161C235.697 249.628 235.823 249.206 235.929 248.896L237.695 243.367H239.277L241 248.896C241.328 249.903 241.551 250.75 241.668 251.436H241.738C241.762 251.225 241.823 250.899 241.923 250.46C242.028 250.021 242.641 247.656 243.76 243.367H245.272L242.609 253H240.877ZM248.48 253H247.021V243.367H248.48V253ZM246.898 240.757C246.898 240.423 246.98 240.18 247.144 240.027C247.308 239.869 247.513 239.79 247.759 239.79C247.993 239.79 248.195 239.869 248.365 240.027C248.535 240.186 248.62 240.429 248.62 240.757C248.62 241.085 248.535 241.331 248.365 241.495C248.195 241.653 247.993 241.732 247.759 241.732C247.513 241.732 247.308 241.653 247.144 241.495C246.98 241.331 246.898 241.085 246.898 240.757ZM253.032 253H251.573V239.324H253.032V253ZM257.585 253H256.126V239.324H257.585V253ZM269.837 243.209C271.103 243.209 272.084 243.643 272.781 244.51C273.484 245.371 273.836 246.593 273.836 248.175C273.836 249.757 273.482 250.987 272.773 251.866C272.069 252.739 271.091 253.176 269.837 253.176C269.21 253.176 268.636 253.062 268.114 252.833C267.599 252.599 267.165 252.241 266.814 251.761H266.708L266.401 253H265.355V239.324H266.814V242.647C266.814 243.391 266.79 244.059 266.743 244.65H266.814C267.493 243.689 268.501 243.209 269.837 243.209ZM269.626 244.431C268.63 244.431 267.912 244.718 267.473 245.292C267.033 245.86 266.814 246.821 266.814 248.175C266.814 249.528 267.039 250.498 267.49 251.084C267.942 251.664 268.665 251.954 269.661 251.954C270.558 251.954 271.226 251.629 271.665 250.979C272.105 250.322 272.324 249.382 272.324 248.157C272.324 246.903 272.105 245.969 271.665 245.354C271.226 244.738 270.546 244.431 269.626 244.431ZM280.463 253.176C279.039 253.176 277.914 252.742 277.088 251.875C276.268 251.008 275.858 249.804 275.858 248.263C275.858 246.71 276.238 245.477 277 244.563C277.768 243.648 278.796 243.191 280.085 243.191C281.292 243.191 282.247 243.59 282.95 244.387C283.653 245.178 284.005 246.224 284.005 247.524V248.447H277.369C277.399 249.578 277.683 250.437 278.222 251.022C278.767 251.608 279.531 251.901 280.516 251.901C281.553 251.901 282.578 251.685 283.592 251.251V252.552C283.076 252.774 282.587 252.933 282.124 253.026C281.667 253.126 281.113 253.176 280.463 253.176ZM280.068 244.413C279.294 244.413 278.676 244.665 278.213 245.169C277.756 245.673 277.486 246.37 277.404 247.261H282.441C282.441 246.341 282.235 245.638 281.825 245.151C281.415 244.659 280.829 244.413 280.068 244.413ZM297.734 251.708H297.654C296.981 252.687 295.973 253.176 294.631 253.176C293.371 253.176 292.39 252.745 291.687 251.884C290.989 251.022 290.641 249.798 290.641 248.21C290.641 246.622 290.992 245.389 291.695 244.51C292.399 243.631 293.377 243.191 294.631 243.191C295.938 243.191 296.94 243.666 297.637 244.615H297.751L297.69 243.921L297.654 243.244V239.324H299.113V253H297.927L297.734 251.708ZM294.816 251.954C295.812 251.954 296.532 251.685 296.978 251.146C297.429 250.601 297.654 249.725 297.654 248.518V248.21C297.654 246.845 297.426 245.872 296.969 245.292C296.518 244.706 295.794 244.413 294.798 244.413C293.943 244.413 293.286 244.747 292.829 245.415C292.378 246.077 292.152 247.015 292.152 248.228C292.152 249.458 292.378 250.387 292.829 251.014C293.28 251.641 293.943 251.954 294.816 251.954ZM306.285 253.176C304.861 253.176 303.736 252.742 302.91 251.875C302.09 251.008 301.68 249.804 301.68 248.263C301.68 246.71 302.061 245.477 302.822 244.563C303.59 243.648 304.618 243.191 305.907 243.191C307.114 243.191 308.069 243.59 308.773 244.387C309.476 245.178 309.827 246.224 309.827 247.524V248.447H303.192C303.221 249.578 303.505 250.437 304.044 251.022C304.589 251.608 305.354 251.901 306.338 251.901C307.375 251.901 308.401 251.685 309.414 251.251V252.552C308.899 252.774 308.409 252.933 307.946 253.026C307.489 253.126 306.936 253.176 306.285 253.176ZM305.89 244.413C305.116 244.413 304.498 244.665 304.035 245.169C303.578 245.673 303.309 246.37 303.227 247.261H308.263C308.263 246.341 308.058 245.638 307.648 245.151C307.237 244.659 306.651 244.413 305.89 244.413ZM313.782 253H312.323V239.324H313.782V253ZM318.335 253H316.876V243.367H318.335V253ZM316.753 240.757C316.753 240.423 316.835 240.18 316.999 240.027C317.163 239.869 317.368 239.79 317.614 239.79C317.849 239.79 318.051 239.869 318.221 240.027C318.391 240.186 318.476 240.429 318.476 240.757C318.476 241.085 318.391 241.331 318.221 241.495C318.051 241.653 317.849 241.732 317.614 241.732C317.368 241.732 317.163 241.653 316.999 241.495C316.835 241.331 316.753 241.085 316.753 240.757ZM323.538 253L319.882 243.367H321.446L323.521 249.08C323.989 250.416 324.265 251.283 324.347 251.682H324.417C324.482 251.371 324.684 250.73 325.024 249.757C325.369 248.778 326.14 246.648 327.335 243.367H328.9L325.243 253H323.538ZM334.516 253.176C333.092 253.176 331.967 252.742 331.141 251.875C330.32 251.008 329.91 249.804 329.91 248.263C329.91 246.71 330.291 245.477 331.053 244.563C331.82 243.648 332.849 243.191 334.138 243.191C335.345 243.191 336.3 243.59 337.003 244.387C337.706 245.178 338.058 246.224 338.058 247.524V248.447H331.422C331.451 249.578 331.735 250.437 332.275 251.022C332.819 251.608 333.584 251.901 334.568 251.901C335.606 251.901 336.631 251.685 337.645 251.251V252.552C337.129 252.774 336.64 252.933 336.177 253.026C335.72 253.126 335.166 253.176 334.516 253.176ZM334.12 244.413C333.347 244.413 332.729 244.665 332.266 245.169C331.809 245.673 331.539 246.37 331.457 247.261H336.493C336.493 246.341 336.288 245.638 335.878 245.151C335.468 244.659 334.882 244.413 334.12 244.413ZM344.948 243.191C345.376 243.191 345.76 243.227 346.1 243.297L345.898 244.65C345.499 244.563 345.148 244.519 344.843 244.519C344.064 244.519 343.396 244.835 342.839 245.468C342.288 246.101 342.013 246.889 342.013 247.832V253H340.554V243.367H341.758L341.925 245.151H341.995C342.353 244.524 342.783 244.041 343.287 243.701C343.791 243.361 344.345 243.191 344.948 243.191ZM351.971 253.176C350.547 253.176 349.422 252.742 348.596 251.875C347.776 251.008 347.365 249.804 347.365 248.263C347.365 246.71 347.746 245.477 348.508 244.563C349.276 243.648 350.304 243.191 351.593 243.191C352.8 243.191 353.755 243.59 354.458 244.387C355.161 245.178 355.513 246.224 355.513 247.524V248.447H348.877C348.906 249.578 349.191 250.437 349.73 251.022C350.275 251.608 351.039 251.901 352.024 251.901C353.061 251.901 354.086 251.685 355.1 251.251V252.552C354.584 252.774 354.095 252.933 353.632 253.026C353.175 253.126 352.621 253.176 351.971 253.176ZM351.575 244.413C350.802 244.413 350.184 244.665 349.721 245.169C349.264 245.673 348.994 246.37 348.912 247.261H353.948C353.948 246.341 353.743 245.638 353.333 245.151C352.923 244.659 352.337 244.413 351.575 244.413ZM364.566 251.708H364.486C363.813 252.687 362.805 253.176 361.463 253.176C360.203 253.176 359.222 252.745 358.519 251.884C357.821 251.022 357.473 249.798 357.473 248.21C357.473 246.622 357.824 245.389 358.527 244.51C359.231 243.631 360.209 243.191 361.463 243.191C362.77 243.191 363.772 243.666 364.469 244.615H364.583L364.522 243.921L364.486 243.244V239.324H365.945V253H364.759L364.566 251.708ZM361.648 251.954C362.644 251.954 363.364 251.685 363.81 251.146C364.261 250.601 364.486 249.725 364.486 248.518V248.21C364.486 246.845 364.258 245.872 363.801 245.292C363.35 244.706 362.626 244.413 361.63 244.413C360.775 244.413 360.118 244.747 359.661 245.415C359.21 246.077 358.984 247.015 358.984 248.228C358.984 249.458 359.21 250.387 359.661 251.014C360.112 251.641 360.775 251.954 361.648 251.954ZM368.837 252.068C368.837 251.676 368.925 251.38 369.101 251.181C369.282 250.976 369.54 250.873 369.874 250.873C370.214 250.873 370.478 250.976 370.665 251.181C370.859 251.38 370.955 251.676 370.955 252.068C370.955 252.449 370.859 252.742 370.665 252.947C370.472 253.152 370.208 253.255 369.874 253.255C369.575 253.255 369.326 253.164 369.127 252.982C368.934 252.795 368.837 252.49 368.837 252.068Z" fill="#9E9E9E"/>
<defs>
<filter id="filter0_dd_403_699" x="0" y="0" width="167" height="192" filterUnits="userSpaceOnUse" color-interpolation-filters="sRGB">
<feFlood flood-opacity="0" result="BackgroundImageFix"/>
<feColorMatrix in="SourceAlpha" type="matrix" values="0 0 0 0 0 0 0 0 0 0 0 0 0 0 0 0 0 0 127 0" result="hardAlpha"/>
<feOffset dy="20"/>
<feGaussianBlur stdDeviation="20"/>
<feColorMatrix type="matrix" values="0 0 0 0 1 0 0 0 0 0.680498 0 0 0 0 0 0 0 0 0.29 0"/>
<feBlend mode="normal" in2="BackgroundImageFix" result="effect1_dropShadow_403_699"/>
<feColorMatrix in="SourceAlpha" type="matrix" values="0 0 0 0 0 0 0 0 0 0 0 0 0 0 0 0 0 0 127 0" result="hardAlpha"/>
<feOffset dy="5"/>
<feGaussianBlur stdDeviation="5"/>
<feColorMatrix type="matrix" values="0 0 0 0 1 0 0 0 0 0.680498 0 0 0 0 0 0 0 0 0.26 0"/>
<feBlend mode="normal" in2="effect1_dropShadow_403_699" result="effect2_dropShadow_403_699"/>
<feBlend mode="normal" in="SourceGraphic" in2="effect2_dropShadow_403_699" result="shape"/>
</filter>
<filter id="filter1_dd_403_699" x="128" y="0" width="166" height="192" filterUnits="userSpaceOnUse" color-interpolation-filters="sRGB">
<feFlood flood-opacity="0" result="BackgroundImageFix"/>
<feColorMatrix in="SourceAlpha" type="matrix" values="0 0 0 0 0 0 0 0 0 0 0 0 0 0 0 0 0 0 127 0" result="hardAlpha"/>
<feOffset dy="20"/>
<feGaussianBlur stdDeviation="20"/>
<feColorMatrix type="matrix" values="0 0 0 0 1 0 0 0 0 0.680498 0 0 0 0 0 0 0 0 0.29 0"/>
<feBlend mode="normal" in2="BackgroundImageFix" result="effect1_dropShadow_403_699"/>
<feColorMatrix in="SourceAlpha" type="matrix" values="0 0 0 0 0 0 0 0 0 0 0 0 0 0 0 0 0 0 127 0" result="hardAlpha"/>
<feOffset dy="5"/>
<feGaussianBlur stdDeviation="5"/>
<feColorMatrix type="matrix" values="0 0 0 0 1 0 0 0 0 0.680498 0 0 0 0 0 0 0 0 0.26 0"/>
<feBlend mode="normal" in2="effect1_dropShadow_403_699" result="effect2_dropShadow_403_699"/>
<feBlend mode="normal" in="SourceGraphic" in2="effect2_dropShadow_403_699" result="shape"/>
</filter>
<filter id="filter2_dd_403_699" x="255" y="0" width="152.188" height="192" filterUnits="userSpaceOnUse" color-interpolation-filters="sRGB">
<feFlood flood-opacity="0" result="BackgroundImageFix"/>
<feColorMatrix in="SourceAlpha" type="matrix" values="0 0 0 0 0 0 0 0 0 0 0 0 0 0 0 0 0 0 127 0" result="hardAlpha"/>
<feOffset dy="20"/>
<feGaussianBlur stdDeviation="20"/>
<feColorMatrix type="matrix" values="0 0 0 0 1 0 0 0 0 0.680498 0 0 0 0 0 0 0 0 0.29 0"/>
<feBlend mode="normal" in2="BackgroundImageFix" result="effect1_dropShadow_403_699"/>
<feColorMatrix in="SourceAlpha" type="matrix" values="0 0 0 0 0 0 0 0 0 0 0 0 0 0 0 0 0 0 127 0" result="hardAlpha"/>
<feOffset dy="5"/>
<feGaussianBlur stdDeviation="5"/>
<feColorMatrix type="matrix" values="0 0 0 0 1 0 0 0 0 0.680498 0 0 0 0 0 0 0 0 0.26 0"/>
<feBlend mode="normal" in2="effect1_dropShadow_403_699" result="effect2_dropShadow_403_699"/>
<feBlend mode="normal" in="SourceGraphic" in2="effect2_dropShadow_403_699" result="shape"/>
</filter>
<filter id="filter3_dd_403_699" x="368.188" y="0" width="192" height="192" filterUnits="userSpaceOnUse" color-interpolation-filters="sRGB">
<feFlood flood-opacity="0" result="BackgroundImageFix"/>
<feColorMatrix in="SourceAlpha" type="matrix" values="0 0 0 0 0 0 0 0 0 0 0 0 0 0 0 0 0 0 127 0" result="hardAlpha"/>
<feOffset dy="20"/>
<feGaussianBlur stdDeviation="20"/>
<feColorMatrix type="matrix" values="0 0 0 0 1 0 0 0 0 0.680498 0 0 0 0 0 0 0 0 0.29 0"/>
<feBlend mode="normal" in2="BackgroundImageFix" result="effect1_dropShadow_403_699"/>
<feColorMatrix in="SourceAlpha" type="matrix" values="0 0 0 0 0 0 0 0 0 0 0 0 0 0 0 0 0 0 127 0" result="hardAlpha"/>
<feOffset dy="5"/>
<feGaussianBlur stdDeviation="5"/>
<feColorMatrix type="matrix" values="0 0 0 0 1 0 0 0 0 0.680498 0 0 0 0 0 0 0 0 0.26 0"/>
<feBlend mode="normal" in2="effect1_dropShadow_403_699" result="effect2_dropShadow_403_699"/>
<feBlend mode="normal" in="SourceGraphic" in2="effect2_dropShadow_403_699" result="shape"/>
</filter>
<linearGradient id="paint0_linear_403_699" x1="83.5" y1="-22.8025" x2="83.5" y2="169.452" gradientUnits="userSpaceOnUse">
<stop offset="0.630208" stop-color="#FFAE00"/>
<stop offset="1" stop-color="#FFCD1E"/>
</linearGradient>
<linearGradient id="paint1_linear_403_699" x1="83.5" y1="20" x2="83.5" y2="132" gradientUnits="userSpaceOnUse">
<stop stop-color="#FF9F00"/>
<stop offset="1" stop-color="#FFB800"/>
</linearGradient>
<linearGradient id="paint2_linear_403_699" x1="211" y1="-22.8025" x2="211" y2="169.452" gradientUnits="userSpaceOnUse">
<stop offset="0.630208" stop-color="#FFAE00"/>
<stop offset="1" stop-color="#FFCD1E"/>
</linearGradient>
<linearGradient id="paint3_linear_403_699" x1="211" y1="20" x2="211" y2="132" gradientUnits="userSpaceOnUse">
<stop stop-color="#FF9F00"/>
<stop offset="1" stop-color="#FFB800"/>
</linearGradient>
<linearGradient id="paint4_linear_403_699" x1="331.094" y1="-22.8026" x2="331.094" y2="169.452" gradientUnits="userSpaceOnUse">
<stop offset="0.630208" stop-color="#FFAE00"/>
<stop offset="1" stop-color="#FFCD1E"/>
</linearGradient>
<linearGradient id="paint5_linear_403_699" x1="331.094" y1="20" x2="331.094" y2="132" gradientUnits="userSpaceOnUse">
<stop stop-color="#FF9F00"/>
<stop offset="1" stop-color="#FFB800"/>
</linearGradient>
<linearGradient id="paint6_linear_403_699" x1="464.188" y1="-21.5486" x2="464.188" y2="165.074" gradientUnits="userSpaceOnUse">
<stop stop-color="#FFAE00"/>
<stop offset="1" stop-color="#FFCD1E"/>
</linearGradient>
<linearGradient id="paint7_linear_403_699" x1="464.188" y1="20" x2="464.188" y2="128.719" gradientUnits="userSpaceOnUse">
<stop stop-color="#FF9F00"/>
<stop offset="1" stop-color="#FFB800"/>
</linearGradient>
<linearGradient id="paint8_linear_403_699" x1="464.188" y1="-21.5485" x2="464.188" y2="165.074" gradientUnits="userSpaceOnUse">
<stop offset="0.630208" stop-color="#FFAE00"/>
<stop offset="1" stop-color="#FFCD1E"/>
</linearGradient>
<linearGradient id="paint9_linear_403_699" x1="464.188" y1="20" x2="464.188" y2="128.719" gradientUnits="userSpaceOnUse">
<stop stop-color="#FF9F00"/>
<stop offset="1" stop-color="#FFB800"/>
</linearGradient>
<clipPath id="clip0_403_699">
<rect width="87" height="112" fill="white" transform="translate(40 20)"/>
</clipPath>
<clipPath id="clip1_403_699">
<rect width="86" height="112" fill="white" transform="translate(168 20)"/>
</clipPath>
</defs>
</svg>
